<svg viewBox="0 0 252 42" xmlns="http://www.w3.org/2000/svg"><g fill="none"><path d="m17.1 6.9c.3-1.1.9-2 1.8-2.7s2-1.1 3.2-1.1c2.2 0 3.7 1.1 4.5 3.2.5-1 1.3-1.8 2.2-2.4s2-.9 3.2-.9c1.7 0 3 .6 3.9 1.8s1.3 3 1.3 5.3v25.2h-4.4v-25.2c0-2.2-.9-3.2-2.6-3.2-1.9 0-3 1-3.1 3v25.6h-4.4v-25.4c0-2.1-.8-3.2-2.5-3.2-1 0-1.8.3-2.3 1s-.8 1.6-.8 2.7v24.9h-4.4v-32h4.4z" fill="#fffff0"/><path d="m.6 12.8c0-3.9.6-6.4 1.8-7.7s2.9-1.9 5.2-1.9c2.2 0 3.8.5 4.8 1.6s1.6 2.8 1.8 5.2c.1 1 .1 2.3.1 3.8v21.7h-4.4v-2.8c-.2.8-.7 1.5-1.5 2.1s-1.7.9-2.9.9c-3.6 0-5.4-2.8-5.5-8.5v-3c0-1.8.5-3.4 1.5-4.7s3.8-2.8 8.3-4.4v-2.5c0-2.7-.2-4.4-.6-4.9-.4-.6-1.1-.8-2-.8-1 0-1.6.4-1.9 1.3-.3.8-.5 2.3-.5 4.5v1.1h-4.3v-1zm9.4 5.1c-1.8.8-3 1.4-3.6 1.9s-1 1-1.4 1.5c-.3.6-.5 1.6-.5 2.9v3c0 1.9.2 3.2.5 3.9.3.8.9 1.1 1.7 1.1s1.5-.2 2-.7c.6-.5 1-1 1.2-1.5v-12.1z" fill="#000"/><g fill="#020203"><path d="m49.414.795h1.698l3.395 19.648h-1.584l-.68-3.975h-3.848l-.565 3.975h-1.585zm2.603 14.31-1.81-11.13-1.698 11.13z"/><path d="m54.507 20.67h-1.584c-.114 0-.227-.113-.227-.227l-.566-3.747h-3.508l-.566 3.747c0 .114-.113.228-.226.228h-1.585c-.113 0-.113 0-.226-.114 0 0-.114-.114 0-.227l3.169-19.65c0-.113.113-.227.226-.227h1.698c.113 0 .226.114.226.227l3.509 19.649v.227c-.227 0-.227.114-.34.114zm-1.358-.454h1.132l-3.396-19.194h-1.358l-3.056 19.194h1.132l.566-3.748c0-.113.113-.227.226-.227h3.962c.113 0 .226.114.226.227zm-1.132-4.883h-3.507c-.114 0-.114 0-.227-.114 0 0-.113-.114 0-.227l1.698-11.13c0-.114.113-.228.226-.228s.227.114.227.228l1.81 11.13v.227c0 .114-.113.114-.226.114zm-3.169-.455h2.943l-1.585-9.54zm16.524-14.083h1.811v19.648h-1.471v-8.403l.226-7.95-2.83 15.9h-1.584l-2.942-15.9.226 7.95v8.404h-1.358v-19.649h1.81l3.057 16.468z"/><path d="m67.296 20.67h-1.47c-.114 0-.227-.113-.227-.227v-8.403l.113-4.77-2.264 12.72c0 .114-.113.227-.226.227h-1.585c-.113 0-.226-.113-.226-.227l-2.377-12.948.114 4.883v8.518c0 .114-.114.228-.227.228h-1.471c-.113 0-.227-.114-.227-.228v-19.648c0-.114.114-.227.227-.227h1.81c.114 0 .227.113.227.227l2.83 15.333 2.716-15.333c0-.114.113-.227.226-.227h1.811c.113 0 .226.113.226.227v19.648c.227.114.114.228 0 .228zm-1.358-.454h1.019v-19.194h-1.471l-2.943 16.355c0 .114-.113.227-.226.227-.114 0-.227-.113-.227-.227l-3.056-16.355h-1.471v19.194h1.019v-8.176l-.227-7.95c0-.114.113-.227.227-.227.113 0 .226.113.226.227l2.83 15.673h1.244l2.718-15.674c0-.114.113-.227.226-.227s.226.113.226.227l-.226 7.95v8.177h.113zm7.47-19.421h1.698l3.394 19.648h-1.584l-.68-3.975h-3.96l-.453 3.975h-1.585l3.172-19.648zm2.717 14.31-1.811-11.13-1.698 11.13z"/><path d="m78.501 20.67h-1.584c-.113 0-.227-.113-.227-.227l-.565-3.747h-3.51l-.565 3.747c0 .114-.113.228-.226.228h-1.585c-.113 0-.113 0-.226-.114 0 0-.113-.114 0-.227l3.169-19.65c0-.113.113-.227.226-.227h1.698c.113 0 .226.114.226.227l3.509 19.649v.227c-.113 0-.227.114-.34.114zm-1.358-.454h1.132l-3.395-19.194h-1.36l-3.055 19.194h1.131l.566-3.748c0-.113.113-.227.227-.227h3.96c.114 0 .227.114.227.227l.566 3.748zm-1.018-4.883h-3.51c-.112 0-.112 0-.225-.114 0 0-.114-.114 0-.227l1.697-11.13c0-.114.113-.228.227-.228.113 0 .226.114.226.228l1.81 11.13v.227c-.112 0-.225.114-.225.114zm-3.283-.455h2.943l-1.585-9.54zm14.488-14.083h1.47v19.648h-1.244l-4.528-14.763.114 5.338v9.426h-1.585v-19.649h1.132l4.754 15.22-.114-6.815z"/><path d="m88.8 20.67h-1.244c-.113 0-.227-.113-.227-.113l-4.074-13.287.113 3.634v9.54c0 .114-.113.228-.226.228h-1.585c-.113 0-.226-.114-.226-.228v-19.649c0-.114.113-.227.226-.227h1.132c.113 0 .226.113.226.113l4.301 13.63-.113-5.225v-8.405c0-.113.113-.227.226-.227h1.472c.113 0 .226.114.226.227v19.762c0 .114-.113.228-.226.228zm-1.131-.454h.905v-19.194h-1.018v8.178l.113 6.7c0 .114-.113.228-.226.228-.114 0-.227 0-.227-.114l-4.753-14.992h-.793v19.194h1.132v-14.536c0-.114.113-.227.226-.227.114 0 .227 0 .227.113l4.414 14.651zm5.206-19.421h3.056c1.81 0 2.83.681 3.395 2.158.227.795.453 1.93.453 3.407v8.405c0 2.044-.34 3.52-.905 4.316-.68.908-1.585 1.362-3.056 1.362h-2.943zm5.093 5.452c0-1.477-.113-2.499-.452-3.067-.34-.681-.793-.909-1.585-.909h-1.471v16.81h1.471c.905 0 1.471-.455 1.81-1.25.227-.681.34-1.703.34-3.066z"/><path d="m95.818 20.67h-2.943c-.113 0-.226-.113-.226-.227v-19.648c0-.114.113-.227.226-.227h3.056c1.81 0 3.056.795 3.622 2.271.34.909.452 2.045.452 3.521v8.405c0 2.158-.339 3.52-.905 4.43-.679 1.021-1.81 1.476-3.282 1.476zm-2.716-.454h2.716c1.358 0 2.263-.34 2.83-1.135.565-.795.792-2.272.792-4.203v-8.404c0-1.363-.114-2.499-.453-3.407-.453-1.363-1.471-2.045-3.17-2.045h-2.829v19.194zm2.829-1.022h-1.358c-.113 0-.227-.113-.227-.227v-16.81c0-.113.114-.226.227-.226h1.471c.792 0 1.358.34 1.698 1.022.34.681.566 1.704.566 3.18v8.405c0 1.362-.113 2.498-.34 3.18-.34 1.022-1.018 1.476-2.037 1.476zm-1.132-.454h1.132c.792 0 1.358-.34 1.585-1.136.226-.681.34-1.704.34-3.066v-8.405c0-1.363-.114-2.385-.454-2.953s-.679-.795-1.358-.795h-1.244v16.355zm10.526-17.945h1.698l3.508 19.648h-1.584l-.68-3.975h-3.96l-.567 3.975h-1.584zm2.716 14.31-1.81-11.13-1.698 11.13z"/><path d="m110.531 20.67h-1.584c-.113 0-.227-.113-.227-.227l-.566-3.747h-3.508l-.68 3.747c0 .114-.112.228-.226.228h-1.584c-.113 0-.113 0-.226-.114 0 0-.114-.114 0-.227l3.169-19.65c0-.113.113-.227.226-.227h1.698c.113 0 .226.114.226.227l3.509 19.649v.227c-.114 0-.227.114-.227.114zm-1.471-.454h1.132l-3.396-19.194h-1.358l-3.056 19.194h1.132l.566-3.748c0-.113.113-.227.226-.227h3.962c.113 0 .226.114.226.227zm-1.019-4.883h-3.508c-.113 0-.113 0-.227-.114 0 0-.113-.114 0-.227l1.698-11.13c0-.114.113-.228.226-.228.114 0 .227.114.227.228l1.81 11.13v.227c-.113 0-.113.114-.226.114zm-3.169-.455h2.943l-1.585-9.54zm12.676-8.404c0-2.385.34-3.975.906-4.77.566-.795 1.471-1.136 2.603-1.136s1.924.227 2.377.795c.34.34.566.795.679 1.136.226.908.34 2.271.34 4.088v1.704h-1.698v-1.93c0-1.704-.113-2.727-.227-3.294-.113-.568-.452-.91-.792-1.023-.226-.113-.34-.113-.566-.113-.679 0-1.245.34-1.471 1.136-.227.681-.453 1.817-.453 3.407v7.836c0 1.931.113 3.18.34 3.976.226.681.679 1.135 1.471 1.135s1.132-.34 1.358-1.135c.227-.682.34-2.045.34-3.976v-1.59h1.697v1.59c0 1.704-.113 2.953-.34 3.748-.226.795-.452 1.25-.678 1.59-.566.682-1.358 1.023-2.377 1.023-1.132 0-1.924-.341-2.49-1.023-.68-.795-1.019-2.612-1.019-5.338z"/><path d="m120.944 20.898c-1.132 0-2.037-.34-2.603-1.136-.68-.909-1.019-2.726-1.019-5.452v-7.836c0-2.499.34-4.089.905-4.884.68-.795 1.585-1.25 2.717-1.25s2.037.341 2.49.91c.34.454.566.794.679 1.249.226.908.34 2.271.34 4.088v1.704c0 .114-.114.227-.227.227h-1.698c-.113 0-.226-.113-.226-.227v-1.93c0-1.59-.113-2.727-.226-3.294-.114-.455-.34-.796-.68-.91-.113-.113-.339-.113-.565-.113-.566 0-1.019.341-1.245.909-.227.681-.34 1.817-.34 3.294v7.836c0 1.817.113 3.18.34 3.862.226.681.566.908 1.245.908.566 0 1.018-.34 1.131-.908.227-.682.34-2.045.34-3.862v-1.59c0-.113.113-.227.226-.227h1.698c.113 0 .226.114.226.227v1.59c0 1.704-.113 2.953-.34 3.748-.226.795-.452 1.363-.678 1.704-.453.908-1.245 1.363-2.49 1.363zm0-20.103c-1.019 0-1.811.34-2.377 1.136-.566.795-.792 2.271-.792 4.656v7.837c0 2.612.34 4.43 1.018 5.224.453.682 1.245.91 2.264.91s1.698-.342 2.264-.91c.226-.34.452-.795.565-1.59.227-.681.227-1.93.227-3.634v-1.363h-1.245v1.363c0 1.93-.113 3.294-.34 3.975-.226.795-.792 1.25-1.584 1.25s-1.358-.455-1.585-1.25c-.226-.795-.34-2.044-.34-3.975v-7.837c0-1.59.114-2.725.453-3.52.34-.796.906-1.25 1.698-1.25.227 0 .453 0 .68.114.339.227.678.568.905 1.25.226.567.226 1.703.226 3.406v1.704h1.245v-1.477c0-1.817-.113-3.18-.34-3.975-.113-.34-.34-.681-.565-1.135-.566-.682-1.359-.909-2.377-.909zm8.941 0h1.698l3.508 19.648h-1.584l-.68-3.975h-3.96l-.566 3.975h-1.585zm2.716 14.31-1.81-11.13-1.698 11.13z"/><path d="m135.091 20.67h-1.584c-.113 0-.227-.113-.227-.227l-.565-3.747h-3.51l-.678 3.747c0 .114-.113.228-.226.228h-1.585c-.113 0-.113 0-.226-.114 0 0-.114-.114 0-.227l3.169-19.65c0-.113.113-.227.226-.227h1.698c.113 0 .226.114.226.227l3.509 19.649v.227c-.114 0-.227.114-.227.114zm-1.471-.454h1.132l-3.396-19.194h-1.358l-3.056 19.194h1.132l.566-3.748c0-.113.113-.227.226-.227h3.962c.113 0 .226.114.226.227zm-1.019-4.883h-3.508c-.113 0-.113 0-.227-.114 0 0-.113-.114 0-.227l1.698-11.13c0-.114.113-.228.226-.228.114 0 .227.114.227.228l1.81 11.13v.227c-.112 0-.112.114-.226.114zm-3.169-.455h2.943l-1.585-9.54zm13.808-14.083h1.585l-3.17 19.648h-1.697l-3.509-19.648h1.585l2.716 16.128z"/><path d="m141.656 20.67h-1.698c-.113 0-.226-.113-.226-.227l-3.509-19.648v-.227s.113-.114.226-.114h1.585c.113 0 .226.114.226.227l2.49 14.765 2.264-14.765c0-.113.113-.227.226-.227h1.585c.113 0 .113 0 .226.114 0 0 .113.113 0 .227l-3.169 19.648c0 .114-.113.228-.226.228zm-1.585-.454h1.358l3.056-19.194h-1.132l-2.376 15.9c0 .228-.453.228-.453 0l-2.716-15.9h-1.132zm9.507-19.421h1.698l3.509 19.648h-1.585l-.679-3.975h-3.961l-.566 3.975h-1.585l3.171-19.648zm2.603 14.31-1.81-11.13-1.698 11.13z"/><path d="m154.671 20.67h-1.584c-.113 0-.226-.113-.226-.227l-.566-3.747h-3.509l-.566 3.747c0 .114-.113.228-.226.228h-1.585c-.113 0-.113 0-.226-.114 0 0-.113-.114 0-.227l3.169-19.65c0-.113.113-.227.226-.227h1.698c.113 0 .226.114.226.227l3.509 19.649v.227c-.226 0-.226.114-.34.114zm-1.358-.454h1.132l-3.395-19.194h-1.358l-3.056 19.194h1.131l.566-3.748c0-.113.114-.227.227-.227h3.961c.113 0 .226.114.226.227zm-1.132-4.883h-3.508c-.113 0-.113 0-.226-.114 0 0-.114-.114 0-.227l1.697-11.13c0-.114.113-.228.227-.228.113 0 .226.114.226.228l1.81 11.13v.227s-.112.114-.226.114zm-3.169-.455h2.943l-1.584-9.54z"/><path d="m157.614.795h1.698v18.286h3.508v1.362h-5.093v-19.648z"/><path d="m162.82 20.67h-5.093c-.113 0-.226-.113-.226-.227v-19.648c0-.114.113-.227.226-.227h1.698c.113 0 .226.113.226.227v18.058h3.283c.113 0 .226.114.226.228v1.362c-.113.114-.226.228-.34.228zm-4.98-.454h4.64v-.908h-3.168c-.113 0-.227-.114-.227-.227v-18.059h-1.245z"/><path d="m165.31.795h1.698v18.286h3.509v1.362h-5.093v-19.648z"/><path d="m170.517 20.67h-5.093c-.114 0-.227-.113-.227-.227v-19.648c0-.114.113-.227.227-.227h1.697c.113 0 .227.113.227.227v18.058h3.282c.113 0 .226.114.226.228v1.362c-.113.114-.226.228-.34.228zm-4.98-.454h4.64v-.908h-3.282c-.113 0-.226-.114-.226-.227v-18.059h-1.245v19.194z"/><path d="m173.007.795h5.206v1.25h-3.509v7.722h3.283v1.363h-3.283v7.95h3.509v1.363h-5.093v-19.648z"/><path d="m178.1 20.67h-5.093c-.114 0-.227-.113-.227-.227v-19.648c0-.114.113-.227.227-.227h5.206c.113 0 .226.113.226.227v1.25c0 .113-.113.226-.226.226h-3.282v7.27h3.056c.113 0 .226.113.226.226v1.363c0 .114-.113.227-.226.227h-3.056v7.496h3.282c.113 0 .226.114.226.228v1.362c-.113.114-.113.228-.34.228zm-4.867-.454h4.64v-.908h-3.282c-.113 0-.226-.114-.226-.227v-7.95c0-.114.113-.228.226-.228h3.056v-.908h-3.056c-.113 0-.226-.114-.226-.228v-7.723c0-.113.113-.227.226-.227h3.282v-.795h-4.753v19.194z"/><path d="m181.721.795h1.698v19.648h-1.698z"/><path d="m183.306 20.67h-1.698c-.113 0-.226-.113-.226-.227v-19.648c0-.114.113-.227.226-.227h1.698c.113 0 .226.113.226.227v19.648c0 .114-.113.228-.226.228zm-1.471-.454h1.245v-19.194h-1.245z"/><path d="m187.607.795h3.282c1.358 0 2.264.227 2.716.795.34.454.566.909.68 1.59.113.568.113 1.477.113 2.726 0 1.136-.114 2.158-.453 2.84-.226.794-.792 1.249-1.358 1.362.226 0 .452.114.679.227.226.114.34.341.453.568.452.909.679 2.953.679 6.36v2.385c0 .228.113.455.226.795h-1.698c-.113-.227-.226-.681-.226-1.249v-5.111c0-1.363-.113-2.271-.226-2.612-.114-.34-.68-.568-1.472-.568l-1.81-.113v9.653h-1.585zm5.206 4.77c0-1.022 0-1.703-.113-2.158-.113-.454-.226-.795-.453-.908a2.254 2.254 0 0 0 -1.018-.228h-1.811v7.496h1.697c.566 0 .906-.113 1.132-.34.227-.227.34-.568.453-1.022.113-.455.113-1.363.113-2.726z"/><path d="m194.624 20.67h-1.698c-.113 0-.113 0-.226-.113-.113-.227-.226-.681-.226-1.363v-5.111c0-1.703-.114-2.271-.227-2.498-.113-.341-.792-.455-1.245-.455l-1.584-.113v9.426c0 .114-.113.228-.227.228h-1.584c-.113 0-.227-.114-.227-.228v-19.648c0-.114.114-.227.227-.227h3.282c1.471 0 2.377.34 2.83.908.34.455.565 1.023.679 1.704.113.568.113 1.477.113 2.726 0 1.136-.113 2.158-.453 2.953-.226.568-.566 1.022-1.019 1.25 0 0 .114 0 .114.113.226.113.452.34.566.681.452.909.679 2.953.679 6.474v2.385c0 .227.113.454.226.681v.228c.226-.114.113 0 0 0zm-1.471-.454h1.131c-.113-.227-.113-.34-.113-.568v-2.385c0-3.293-.226-5.338-.679-6.246-.113-.227-.226-.455-.453-.455-.113-.113-.34-.113-.565-.227-.114 0-.227-.113-.227-.227 0-.113.113-.227.113-.227.566-.114 1.019-.568 1.245-1.25.227-.68.34-1.703.34-2.839 0-1.135 0-2.044-.113-2.612s-.34-1.022-.566-1.476c-.453-.455-1.245-.795-2.49-.795h-3.056v19.194h1.245v-9.427c0-.114 0-.114.113-.114l.113-.113 1.811.113c.906 0 1.472.228 1.698.682s.226 1.25.226 2.726v5.111c.113.567.227.908.227 1.135zm-2.15-10.335h-1.698c-.114 0-.227-.114-.227-.227v-7.496c0-.114.113-.227.227-.227h1.81c.566 0 .906.113 1.132.34.227.228.453.568.566 1.023.113.454.113 1.249.113 2.271v.114c0 1.363 0 2.271-.113 2.726-.113.454-.34.908-.566 1.135s-.566.341-1.245.341zm-1.472-.454h1.471c.68 0 .906-.114 1.019-.227.226-.114.34-.455.453-.909s.113-1.363.113-2.612v-.114c0-1.022 0-1.703-.113-2.158-.114-.454-.227-.681-.34-.795a1.749 1.749 0 0 0 -.905-.227h-1.585v7.042z"/><path d="m197.906 6.247c0-2.385.34-3.976.906-4.657s1.471-1.136 2.716-1.136 2.037.455 2.49 1.25c.34.567.453 1.135.566 1.93.113.682.113 1.59.113 2.613v8.404c0 1.704-.113 2.953-.34 3.635-.226.681-.452 1.135-.679 1.476-.565.568-1.358.909-2.49.909-1.584 0-2.603-.682-3.055-2.158a16.364 16.364 0 0 1 -.453-3.862v-8.404zm5.32-.114c0-1.59-.113-2.612-.34-3.294-.226-.681-.679-.908-1.358-.908-.68 0-1.132.34-1.471 1.022-.227.681-.453 1.704-.453 3.294v8.518c0 1.817.113 2.953.226 3.52.227.455.34.796.566 1.023.227.113.566.227.906.227s.679-.114.905-.227c.226-.114.453-.455.566-.909.226-.454.226-1.703.226-3.52v-8.747h.227z"/><path d="m201.415 20.898c-1.698 0-2.83-.795-3.282-2.272-.227-.908-.453-2.271-.453-3.975v-8.404c0-2.499.34-3.976.905-4.77.68-.796 1.585-1.136 2.943-1.136s2.264.454 2.716 1.363c.34.567.566 1.249.566 1.93.113.682.113 1.59.113 2.613v8.404c0 1.704-.113 2.953-.34 3.635-.226.681-.452 1.249-.678 1.59-.453.681-1.358 1.022-2.49 1.022zm.113-20.103c-1.132 0-2.037.34-2.603 1.022s-.792 2.158-.792 4.543v8.405c0 1.703.113 2.953.452 3.861.34 1.363 1.358 1.931 2.83 1.931 1.018 0 1.81-.34 2.263-.795.227-.227.453-.795.68-1.363.226-.681.339-1.817.339-3.52v-8.406c0-1.022 0-1.931-.113-2.612-.113-.682-.227-1.25-.566-1.818-.566-.908-1.245-1.249-2.49-1.249zm-.113 18.74c-.453 0-.792-.114-1.019-.227-.226-.227-.453-.568-.679-1.136s-.34-1.704-.34-3.52v-8.52c0-1.59.114-2.612.453-3.294.34-.795.906-1.135 1.698-1.135s1.358.34 1.585 1.135c.226.682.339 1.818.339 3.408v8.518c0 1.817-.113 3.066-.34 3.52-.226.568-.452.91-.679 1.023a2.254 2.254 0 0 1 -1.018.227zm0-17.377c-.566 0-1.019.227-1.245.795-.227.568-.34 1.704-.34 3.18v8.518c0 1.817.113 2.953.227 3.407.226.568.452.795.566.909.226.114.452.227.792.227s.566-.113.792-.227c.113-.114.34-.34.566-.909.226-.454.226-1.59.226-3.407v-8.518c0-1.476-.113-2.612-.34-3.18-.226-.568-.565-.795-1.244-.795z"/><path d="m220.882.795h1.81v19.648h-1.47v-8.403l.226-7.95-2.83 15.9h-1.584l-2.943-15.9.226 7.95v8.404h-1.471v-19.649h1.81l3.057 16.468z"/><path d="m222.806 20.67h-1.472c-.113 0-.226-.113-.226-.227v-8.403l.113-4.77-2.263 12.72c0 .114-.113.227-.227.227h-1.584c-.113 0-.227-.113-.227-.227l-2.376-12.947.113 4.883v8.518c0 .114-.113.228-.226.228h-1.472c-.113 0-.226-.114-.226-.228v-19.649c0-.114.113-.227.226-.227h1.811c.113 0 .226.113.226.227l2.83 15.333 2.716-15.333c0-.114.113-.227.227-.227h1.81c.114 0 .227.113.227.227v19.648c.226.114.113.228 0 .228zm-1.358-.454h1.018v-19.194h-1.471l-2.83 16.241c0 .114-.113.228-.226.228s-.226-.114-.226-.228l-3.056-16.353h-1.471v19.194h1.018v-8.178l-.226-7.95c0-.113.113-.227.226-.227s.227.114.227.227l2.829 15.673h1.245l2.716-15.673c0-.113.113-.227.227-.227.113 0 .226.114.226.227l-.226 7.95v8.291z"/><path d="m226.654 6.247c0-2.385.34-3.976.905-4.657.566-.681 1.472-1.136 2.717-1.136s2.037.455 2.49 1.25c.34.567.452 1.135.566 1.93.113.682.113 1.59.113 2.613v8.404c0 1.704-.113 2.953-.34 3.635-.226.681-.453 1.135-.679 1.476-.566.568-1.358.909-2.49.909-1.584 0-2.603-.682-3.056-2.158a16.364 16.364 0 0 1 -.452-3.862v-8.404zm5.206-.114c0-1.59-.113-2.612-.34-3.294-.226-.681-.678-.908-1.357-.908-.68 0-1.132.34-1.472 1.022-.226.681-.453 1.704-.453 3.294v8.518c0 1.817.114 2.953.227 3.52.226.455.34.796.566 1.023.226.113.566.227.905.227.34 0 .68-.114.906-.227.226-.114.452-.455.566-.909.226-.454.226-1.703.226-3.52v-8.747h.226z"/><path d="m230.05 20.898c-1.698 0-2.83-.795-3.283-2.272-.226-.908-.453-2.271-.453-3.975v-8.404c0-2.499.34-3.976.906-4.77.679-.796 1.584-1.136 2.943-1.136 1.358 0 2.263.454 2.716 1.363.34.567.566 1.249.566 1.93.113.682.113 1.59.113 2.613v8.404c0 1.704-.113 2.953-.34 3.635-.226.681-.452 1.249-.679 1.59-.452.681-1.358 1.022-2.49 1.022zm.226-20.103c-1.132 0-2.038.34-2.603 1.022-.566.682-.793 2.158-.793 4.543v8.405c0 1.703.113 2.953.453 3.861.34 1.363 1.358 1.931 2.83 1.931 1.018 0 1.81-.34 2.263-.795.226-.227.453-.795.68-1.363.226-.681.339-1.817.339-3.52v-8.406c0-1.022 0-1.931-.113-2.612-.114-.682-.227-1.25-.566-1.818-.566-.908-1.358-1.249-2.49-1.249zm-.227 18.74c-.452 0-.792-.114-1.018-.227-.227-.227-.453-.568-.68-1.136-.226-.568-.339-1.704-.339-3.52v-8.52c0-1.59.113-2.612.453-3.294.34-.795.905-1.135 1.698-1.135.792 0 1.358.34 1.584 1.135.226.682.34 1.818.34 3.408v8.518c0 1.817-.114 3.066-.34 3.52-.226.568-.453.91-.679 1.023a2.254 2.254 0 0 1 -1.019.227zm0-17.377c-.566 0-1.018.227-1.245.795-.226.568-.34 1.704-.34 3.18v8.518c0 1.817.114 2.953.227 3.407.227.568.453.795.566.909.226.114.453.227.792.227.34 0 .566-.113.793-.227.113-.114.34-.34.566-.909.226-.454.226-1.59.226-3.407v-8.518c0-1.476-.113-2.612-.34-3.18-.226-.568-.566-.795-1.245-.795z"/><path d="m235.935.795h5.546v1.25h-1.811v18.398h-1.698v-18.399h-2.037z"/><path d="m239.67 20.67h-1.698c-.113 0-.226-.113-.226-.227v-18.172h-1.811c-.113 0-.227-.113-.227-.227v-1.249c0-.114.114-.227.227-.227h5.546c.113 0 .226.113.226.227v1.25c0 .113-.113.226-.226.226h-1.585v18.172c0 .114-.113.228-.226.228zm-1.359-.454h1.245v-18.172c0-.113.114-.227.227-.227h1.584v-.795h-5.093v.795h1.811c.113 0 .226.114.226.227z"/><path d="m246.347.795h1.698l3.509 19.648h-1.698l-.68-3.975h-3.847l-.566 3.975h-1.585l3.17-19.648zm2.603 14.31-1.81-11.13-1.698 11.13z"/><path d="m251.44 20.67h-1.584c-.113 0-.227-.113-.227-.227l-.565-3.747h-3.509l-.566 3.747c0 .114-.113.228-.226.228h-1.585c-.113 0-.113 0-.226-.114 0 0-.113-.114 0-.227l3.168-19.65c0-.113.113-.227.226-.227h1.698c.113 0 .226.114.226.227l3.509 19.649v.227c-.226 0-.226.114-.34.114zm-1.358-.454h1.132l-3.395-19.194h-1.359l-3.055 19.194h1.131l.566-3.748c0-.113.113-.227.227-.227h3.961c.113 0 .226.114.226.227zm-1.132-4.883h-3.508c-.113 0-.113 0-.227-.114 0 0-.113-.114 0-.227l1.698-11.13c0-.114.113-.228.227-.228.113 0 .226.114.226.228l1.81 11.13v.227s-.112.114-.226.114zm-3.169-.455h2.943l-1.584-9.54z"/></g><path d="m77.483 25.895h1.584v14.197h-1.584v-1.022c-.34.681-.793 1.136-1.585 1.136-1.132 0-1.698-.682-1.924-2.158-.113-.455-.113-1.023-.113-1.704v-4.543c0-1.476.226-2.499.679-3.067.34-.454.905-.681 1.585-.681.339 0 .565.114.792.227.226.227.452.454.566.682zm0 5.792c0-.795-.114-1.476-.227-1.817a.851.851 0 0 0 -.792-.568c-.34 0-.679.227-.792.568-.113.34-.227 1.022-.227 1.817v4.77c0 1.136.114 1.818.453 2.158.113.114.34.114.566.114a.863.863 0 0 0 .566-.227c.34-.227.453-1.022.453-2.158zm10.299.114c0-1.476.226-2.499.792-3.18.453-.454 1.019-.682 1.924-.682 1.245 0 1.924.568 2.264 1.59.113.568.226 1.363.226 2.386v2.271h-3.508v2.385c0 1.022.113 1.704.226 1.93.113.228.453.342.792.342.34 0 .566-.114.68-.455.113-.34.226-.568.226-1.022v-1.816h1.584v.454c0 1.25-.113 2.158-.226 2.612-.226.455-.453.91-.792 1.136-.34.227-.793.341-1.358.341-.566 0-.906-.114-1.245-.227-.34-.114-.566-.34-.793-.568-.226-.227-.34-.568-.452-1.022-.114-.455-.227-1.25-.227-2.385v-4.091h-.113zm3.509-.227c0-.795 0-1.363-.114-1.59-.113-.227-.113-.34-.226-.455-.113-.113-.226-.227-.566-.227-.453 0-.792.227-.905.568-.113.455-.227.909-.227 1.704v1.476h1.924v-1.476zm13.808-3.521v1.362c-.906 0-1.585.342-2.038 1.023v9.654h-1.584v-11.925h1.584v1.362c.114-.454.34-.795.68-1.135.452-.227.905-.341 1.358-.341zm9.62 1.363c.113-.454.34-.682.679-1.022.34-.227.68-.341 1.245-.341.792 0 1.358.454 1.698 1.25.226-.341.452-.682.792-.91.34-.226.792-.34 1.245-.34.679 0 1.132.227 1.471.681.34.455.453 1.136.453 2.045v9.427h-1.585v-9.54c0-.796-.34-1.25-.905-1.25-.68 0-1.132.34-1.132 1.136v9.54h-1.584v-9.427c0-.795-.34-1.25-.906-1.25-.34 0-.679.114-.905.342-.227.227-.34.568-.34 1.022v9.313h-1.584v-11.925h1.584v1.249zm16.298 2.158c0-1.477.226-2.385.679-2.84.453-.454 1.132-.681 1.924-.681s1.471.227 1.81.568c.34.454.567 1.022.68 1.93v9.428h-1.698v-1.022c-.113.34-.226.568-.566.795s-.679.341-1.018.341c-1.358 0-2.038-1.022-2.038-3.18v-1.136c0-.681.227-1.25.566-1.704.34-.454 1.359-1.022 3.056-1.703v-.909c0-1.022-.113-1.59-.226-1.817s-.453-.34-.792-.34c-.34 0-.566.113-.68.454-.113.34-.226.908-.226 1.703v.455h-1.471v-.341zm3.395 1.93-1.358.682c-.226.114-.34.34-.453.568-.113.227-.226.568-.226 1.136v1.135c0 .682.113 1.136.226 1.477.114.34.34.454.68.454.339 0 .565-.113.792-.227.226-.227.34-.34.452-.568v-4.656h-.113zm10.639-7.382h1.585v2.158h1.245v1.25h-1.245v8.745c0 .34.113.454.226.568.113.113.453.113 1.132.113v1.25h-1.132c-.792 0-1.245-.114-1.471-.455-.227-.227-.34-.795-.34-1.476v-8.86h-1.132v-1.248h1.132zm10.865 5.793c0-1.931.453-3.18 1.359-3.635.34-.227.792-.34 1.245-.34 1.245 0 2.037.454 2.376 1.476.227.681.34 1.476.34 2.385v4.202c0 1.704-.226 2.726-.68 3.294-.452.568-1.131.795-1.923.795-1.245 0-2.037-.568-2.377-1.59-.226-.568-.34-1.477-.34-2.499zm3.735-.341c0-1.136-.113-1.817-.452-2.045-.114-.113-.34-.113-.566-.113-.453 0-.68.227-.793.568-.113.34-.226.908-.226 1.59v4.997c0 1.136.113 1.93.453 2.158.113.114.34.114.453.114.452 0 .679-.228.792-.568.113-.341.226-.909.226-1.704v-4.997zm10.299-5.679h1.585v14.197h-1.584zm10.187 6.02c0-1.931.453-3.18 1.358-3.635.34-.227.792-.34 1.245-.34 1.245 0 2.037.454 2.377 1.476.226.681.34 1.476.34 2.385v4.202c0 1.704-.227 2.726-.68 3.294-.452.568-1.131.795-1.924.795-1.245 0-2.037-.568-2.377-1.59-.226-.568-.339-1.477-.339-2.499zm3.735-.341c0-1.136-.113-1.817-.453-2.045-.113-.113-.34-.113-.566-.113-.452 0-.679.227-.792.568-.113.34-.226.908-.226 1.59v4.997c0 1.136.113 1.93.452 2.158.114.114.34.114.453.114.453 0 .68-.228.792-.568.114-.341.227-.909.227-1.704v-4.997z" fill="#fff"/><path d="m196.095 28.053c.793 0 1.245.34 1.472 1.022v-.908h1.584v10.79c0 1.476-.566 2.384-1.584 2.725-.34.114-.793.227-1.245.227-1.019 0-1.811-.227-2.377-.795l.566-1.136c.566.341 1.132.568 1.81.568.453 0 .793-.113.906-.454.227-.227.34-.681.34-1.136v-1.136c-.113.341-.34.682-.566.795a2.254 2.254 0 0 1 -1.019.228c-.792 0-1.358-.341-1.584-1.023-.34-.681-.453-1.59-.453-2.725v-3.408c0-2.385.679-3.634 2.15-3.634zm1.472 3.52c0-.794-.113-1.362-.227-1.703-.113-.34-.34-.568-.792-.568-.453 0-.566.114-.792.341-.113.227-.227.454-.227.795 0 .34-.113.682-.113 1.136v3.748c0 .795.113 1.476.227 1.817.113.34.452.568.905.568.226 0 .34-.114.566-.227.226-.227.453-1.022.453-2.158v-3.748z" fill="#fdfdfd"/><path d="m207.98 25.554h1.584v1.477h-1.585v-1.477zm0 2.613h1.584v11.925h-1.585v-11.925zm10.412 3.407c0-1.477.226-2.385.679-2.84.453-.454 1.132-.681 1.924-.681s1.471.227 1.81.568c.34.454.567 1.022.68 1.93v9.428h-1.585v-1.022c-.113.34-.226.568-.566.795s-.679.341-1.018.341c-1.358 0-2.037-1.022-2.037-3.18v-1.136c0-.681.226-1.25.566-1.704s1.358-1.022 3.055-1.703v-.909c0-1.022-.113-1.59-.226-1.817s-.453-.34-.792-.34c-.34 0-.566.113-.68.454-.112.34-.226.908-.226 1.703v.455h-1.584v-.341zm3.508 1.93-1.358.682c-.226.114-.34.34-.452.568-.114.227-.227.568-.227 1.136v1.135c0 .682.113 1.136.227 1.477.113.34.339.454.679.454s.565-.113.792-.227c.226-.227.34-.34.453-.568v-4.656h-.114z" fill="#fff"/><ellipse cx="48.509" cy="34.413" fill="#fff" rx="2.037" ry="2.044"/><ellipse cx="62.204" cy="34.413" fill="#f6f6f6" rx="1.698" ry="1.704"/><ellipse cx="249.177" cy="34.413" fill="#fff" rx="2.037" ry="2.044"/><ellipse cx="235.482" cy="34.413" fill="#fcfcfc" rx="1.698" ry="1.704"/></g></svg>